<svg width="57" height="41" viewBox="0 0 57 41" fill="none" xmlns="http://www.w3.org/2000/svg">
  <path fill-rule="evenodd" clip-rule="evenodd" d="M53.2461 17.2992C53.4967 16.9771 53.4618 16.0761 53.3893 15.2946C53.3089 14.4276 52.9357 13.5499 52.7324 13.0716C52.7106 13.0203 52.6907 12.9736 52.6734 12.932C52.4944 12.5024 51.3847 9.9966 50.3107 8.45732C49.2368 6.91804 48.2703 5.80832 46.3015 4.87759C45.4919 4.55712 44.2859 4.26718 43.1052 3.98333C41.7802 3.66476 40.4871 3.35388 39.8222 3.01613C38.7402 2.46655 37.996 1.99938 37.3328 1.58297C36.6135 1.13144 35.9894 0.739602 35.1327 0.367131C34.3094 0.00916521 33.3429 -0.13404 32.4837 0.152348C31.8253 0.37184 31.414 0.92924 31.4814 1.62004C31.6246 3.08771 32.1616 5.66513 32.1616 5.66513C31.89 5.4539 31.6307 5.23851 31.3709 5.0227C30.6033 4.38511 29.8312 3.74381 28.725 3.19511C26.6289 2.15539 24.3936 1.44527 22.8901 1.79901C22.2815 1.94219 23.0333 3.3741 23.0333 3.3741C23.0333 3.3741 15.0863 0.868293 11.0412 4.26903C11.1349 4.52675 12.0628 5.12487 12.6687 5.51546C12.9886 5.72166 13.2187 5.87002 13.189 5.87991C13.185 5.88124 13.1616 5.88656 13.1206 5.89587C12.2808 6.08676 4.05239 7.95705 3.88173 11.6433C3.87014 11.8937 5.67159 11.8938 5.67159 11.8938C5.67159 11.8938 -1.34467 17.693 0.230408 22.0603C0.951932 21.8263 1.66187 21.4227 2.14189 21.1498C2.54304 20.9217 2.78362 20.785 2.7362 20.9148C0.695756 26.4991 1.84127 36.7372 4.23965 37.4531C5.05905 37.6256 5.39752 36.1198 5.5576 35.4076C5.61253 35.1633 5.64645 35.0123 5.67159 35.0547C7.71204 38.4912 12.4731 40.8538 15.0863 40.9612C17.6995 41.0686 21.1104 41.1272 23.3554 38.6344C25.4765 36.2793 26.1118 33.05 25.0021 30.6874C24.2959 29.1839 22.5321 27.4299 19.4893 27.4657C17.3682 27.4906 15.5682 28.8973 15.3727 31.0096C15.1937 32.9426 16.0748 34.2144 17.6995 34.5893C18.6302 34.8041 19.7729 34.5315 20.3485 33.587C20.8359 32.7872 20.8138 31.9403 20.3485 31.3318C19.9736 30.8415 19.3776 30.5902 18.8092 30.8306C18.4991 30.9617 18.2899 31.0908 18.1648 31.4034C18.061 31.663 17.957 31.9323 18.1648 32.1193C18.3083 32.2484 18.3769 32.0751 18.4596 31.8663C18.5381 31.668 18.6293 31.4377 18.8092 31.4034C19.1536 31.3376 19.4269 31.4774 19.6325 31.7613C19.8382 32.0453 19.6906 32.7456 19.2746 33.05C18.8092 33.2648 18.487 33.2176 18.1648 33.05C17.66 32.7874 17.5167 32.3295 17.4847 31.7613C17.4416 30.9977 18.0216 30.2936 18.487 30.0789C18.9882 29.7882 19.6325 29.8283 20.2053 29.9357C20.8138 30.0073 21.7804 30.9022 22.0667 31.7613C22.3889 32.9068 22.2099 33.945 21.6014 34.8757C20.9928 35.8064 19.9547 36.3636 18.8092 36.5582C16.9119 36.8803 15.3727 36.236 15.3727 36.236C14.4777 35.9854 12.8388 34.8038 12.0435 33.4438C11.256 31.7613 11.3992 29.5777 12.0435 27.0719C13.0146 24.2764 14.9073 22.8836 17.1267 21.4517C17.1999 21.4464 17.2659 21.4394 17.3282 21.4328C17.5271 21.4117 17.687 21.3948 17.9143 21.4517C17.8069 22.1319 17.1983 23.1342 15.9812 23.528C15.6773 23.6263 15.5232 23.9906 15.659 24.2797C15.7306 24.4321 15.8129 24.5661 15.9812 24.5661H21.3866C21.852 24.3513 22.0309 23.9217 21.9235 23.6711C21.8504 23.2323 21.2434 22.9313 21.0286 22.9194C20.5473 22.8927 20.3456 22.9258 19.9611 22.9891C19.8308 23.0105 19.6796 23.0354 19.4893 23.0626C19.7041 22.8075 19.9542 22.5827 20.1979 22.3635C20.6041 21.9982 20.9928 21.6486 21.1718 21.2011H25.3601C25.9656 21.9762 26.2925 22.276 26.7178 22.666C26.9211 22.8525 27.1469 23.0595 27.4363 23.349C26.613 23.4206 26.5772 23.9575 26.5772 23.9575C26.5772 23.9575 26.5414 24.3155 26.792 24.5661H32.4479C32.6627 24.4229 32.7911 24.1689 32.8059 23.8501C32.7343 23.3848 32.4479 23.1342 31.8036 22.991C31.1017 22.874 30.5193 23.0199 30.2125 23.0967C30.1437 23.1139 30.0888 23.1276 30.0495 23.1342C28.3671 22.0603 28.2239 20.1272 28.2239 20.1272C28.2239 20.1272 29.3336 20.9897 31.3382 21.1295C32.37 21.2015 33.5601 21.1986 34.6333 21.1959C35.1612 21.1946 35.6607 21.1934 36.0993 21.2011C40.3215 21.276 42.7078 20.6943 46.8026 19.6619C49.1777 19.063 50.4182 18.6595 52.7808 17.7646C52.7808 17.7646 52.9956 17.6214 53.2461 17.2992ZM43.2431 15.7508C46.011 15.7508 48.2548 13.507 48.2548 10.7392C48.2548 7.97131 46.011 5.72753 43.2431 5.72753C40.4753 5.72753 38.2315 7.97131 38.2315 10.7392C38.2315 13.507 40.4753 15.7508 43.2431 15.7508Z" fill="url(#paint0_linear_284_1610)"/>
  <circle cx="42.7894" cy="11.5741" r="2.07624" transform="rotate(176.622 42.7894 11.5741)" fill="#3F3838"/>
  <circle cx="41.8146" cy="12.6713" r="1.03812" transform="rotate(176.622 41.8146 12.6713)" fill="white"/>
  <path d="M14.1757 24.5566H53.0515L56.2375 25.5232L53.0515 26.4897H14.1757C14.1757 26.4897 13.9609 25.9098 13.9609 25.5232C13.9609 25.1365 14.1757 24.5566 14.1757 24.5566Z" fill="url(#paint1_linear_284_1610)"/>
  <defs>
    <linearGradient id="paint0_linear_284_1610" x1="26.7212" y1="0" x2="26.7212" y2="41" gradientUnits="userSpaceOnUse">
      <stop stop-color="#6565F0"/>
      <stop offset="1" stop-color="#45CC42"/>
    </linearGradient>
    <linearGradient id="paint1_linear_284_1610" x1="13.8535" y1="25.5232" x2="56.2375" y2="25.5232" gradientUnits="userSpaceOnUse">
      <stop offset="0.895833" stop-color="#1E3D06"/>
      <stop offset="0.927083" stop-color="#FFC268"/>
      <stop offset="0.973958" stop-color="#FFC268"/>
      <stop offset="0.978975"/>
    </linearGradient>
  </defs>
</svg>
